<svg width="297" height="300" viewBox="0 0 297 300" fill="none" xmlns="http://www.w3.org/2000/svg">
<g filter="url(#filter0_b_3_2)">
<rect width="296.053" height="300" fill="#1484CC"/>
</g>
<path d="M117.072 297H93.1655L136.692 173.364H164.341L207.928 297H184.021L150.999 198.719H150.033L117.072 297ZM117.857 248.523H183.055V266.513H117.857V248.523ZM286.54 228.783L266.619 230.956C266.055 228.944 265.069 227.052 263.661 225.281C262.292 223.51 260.441 222.082 258.107 220.995C255.772 219.908 252.915 219.365 249.534 219.365C244.986 219.365 241.163 220.351 238.064 222.323C235.005 224.295 233.496 226.851 233.536 229.99C233.496 232.687 234.482 234.88 236.494 236.57C238.547 238.261 241.928 239.649 246.636 240.736L262.453 244.116C271.227 246.008 277.747 249.006 282.013 253.112C286.319 257.217 288.492 262.589 288.533 269.23C288.492 275.066 286.782 280.217 283.401 284.685C280.061 289.112 275.412 292.573 269.456 295.068C263.5 297.563 256.658 298.811 248.93 298.811C237.581 298.811 228.445 296.437 221.523 291.688C214.6 286.898 210.475 280.237 209.147 271.705L230.457 269.653C231.423 273.838 233.476 276.998 236.615 279.131C239.754 281.264 243.839 282.33 248.87 282.33C254.062 282.33 258.227 281.264 261.366 279.131C264.546 276.998 266.136 274.362 266.136 271.222C266.136 268.566 265.109 266.373 263.057 264.642C261.045 262.911 257.905 261.583 253.639 260.658L237.822 257.337C228.928 255.486 222.348 252.367 218.082 247.98C213.816 243.553 211.703 237.959 211.743 231.197C211.703 225.482 213.252 220.532 216.391 216.347C219.571 212.121 223.978 208.861 229.612 206.567C235.287 204.232 241.827 203.065 249.232 203.065C260.099 203.065 268.651 205.379 274.889 210.008C281.168 214.636 285.051 220.894 286.54 228.783Z" fill="white"/>
<defs>
<filter id="filter0_b_3_2" x="-4" y="-4" width="304.053" height="308" filterUnits="userSpaceOnUse" color-interpolation-filters="sRGB">
<feFlood flood-opacity="0" result="BackgroundImageFix"/>
<feGaussianBlur in="BackgroundImage" stdDeviation="2"/>
<feComposite in2="SourceAlpha" operator="in" result="effect1_backgroundBlur_3_2"/>
<feBlend mode="normal" in="SourceGraphic" in2="effect1_backgroundBlur_3_2" result="shape"/>
</filter>
</defs>
</svg>
