<svg width="300" height="300" viewBox="0 0 300 300" fill="none" xmlns="http://www.w3.org/2000/svg">
<rect width="300" height="300" fill="#1484CC"/>
<path d="M121.072 292H97.1655L140.692 168.364H168.341L211.928 292H188.021L154.999 193.719H154.033L121.072 292ZM121.857 243.523H187.055V261.513H121.857V243.523ZM290.54 223.783L270.619 225.956C270.055 223.944 269.069 222.052 267.661 220.281C266.292 218.51 264.441 217.082 262.107 215.995C259.772 214.908 256.915 214.365 253.534 214.365C248.986 214.365 245.163 215.351 242.064 217.323C239.005 219.295 237.496 221.851 237.536 224.99C237.496 227.687 238.482 229.88 240.494 231.57C242.547 233.261 245.928 234.649 250.636 235.736L266.453 239.116C275.227 241.008 281.747 244.006 286.013 248.112C290.319 252.217 292.492 257.589 292.533 264.23C292.492 270.066 290.782 275.217 287.401 279.685C284.061 284.112 279.412 287.573 273.456 290.068C267.5 292.563 260.658 293.811 252.93 293.811C241.581 293.811 232.445 291.437 225.523 286.688C218.6 281.898 214.475 275.237 213.147 266.705L234.457 264.653C235.423 268.838 237.476 271.998 240.615 274.131C243.754 276.264 247.839 277.33 252.87 277.33C258.062 277.33 262.227 276.264 265.366 274.131C268.546 271.998 270.136 269.362 270.136 266.222C270.136 263.566 269.109 261.373 267.057 259.642C265.045 257.911 261.905 256.583 257.639 255.658L241.822 252.337C232.928 250.486 226.348 247.367 222.082 242.98C217.816 238.553 215.703 232.959 215.743 226.197C215.703 220.482 217.252 215.532 220.391 211.347C223.571 207.121 227.978 203.861 233.612 201.567C239.287 199.232 245.827 198.065 253.232 198.065C264.099 198.065 272.651 200.379 278.889 205.008C285.168 209.636 289.051 215.894 290.54 223.783Z" fill="white"/>
</svg>
