<svg width="300" height="300" viewBox="0 0 300 300" fill="none" xmlns="http://www.w3.org/2000/svg">
<rect width="300" height="300" fill="#FFEE58"/>
<path d="M134.091 292H92.1946V168.364H134.936C147.211 168.364 157.756 170.839 166.57 175.789C175.424 180.699 182.225 187.762 186.974 196.979C191.723 206.195 194.098 217.223 194.098 230.061C194.098 242.94 191.703 254.008 186.914 263.264C182.165 272.521 175.303 279.624 166.328 284.575C157.393 289.525 146.648 292 134.091 292ZM114.592 272.621H133.004C141.617 272.621 148.801 271.052 154.556 267.913C160.311 264.733 164.638 260.004 167.536 253.726C170.433 247.407 171.882 239.519 171.882 230.061C171.882 220.603 170.433 212.755 167.536 206.517C164.638 200.239 160.352 195.55 154.677 192.451C149.042 189.312 142.04 187.742 133.668 187.742H114.592V272.621ZM265.014 253.001V199.273H286.868V292H265.678V275.519H264.712C262.619 280.711 259.178 284.957 254.389 288.257C249.64 291.557 243.784 293.207 236.821 293.207C230.744 293.207 225.371 291.859 220.703 289.163C216.074 286.426 212.452 282.462 209.836 277.27C207.22 272.038 205.912 265.719 205.912 258.314V199.273H227.766V254.933C227.766 260.809 229.376 265.478 232.596 268.939C235.815 272.4 240.041 274.131 245.273 274.131C248.493 274.131 251.612 273.346 254.63 271.776C257.649 270.207 260.124 267.872 262.056 264.773C264.028 261.634 265.014 257.71 265.014 253.001Z" fill="black"/>
</svg>
