<svg width="300" height="300" viewBox="0 0 300 300" fill="none" xmlns="http://www.w3.org/2000/svg">
<rect width="300" height="300" fill="#FFEE58"/>
<path d="M148.195 292V168.364H170.592V220.704H227.882V168.364H250.339V292H227.882V239.479H170.592V292H148.195ZM265.233 292V199.273H287.086V292H265.233ZM276.22 186.112C272.759 186.112 269.78 184.965 267.285 182.671C264.79 180.337 263.542 177.54 263.542 174.28C263.542 170.98 264.79 168.183 267.285 165.888C269.78 163.554 272.759 162.387 276.22 162.387C279.721 162.387 282.699 163.554 285.154 165.888C287.65 168.183 288.897 170.98 288.897 174.28C288.897 177.54 287.65 180.337 285.154 182.671C282.699 184.965 279.721 186.112 276.22 186.112Z" fill="black"/>
</svg>
