<svg width="300" height="300" viewBox="0 0 300 300" fill="none" xmlns="http://www.w3.org/2000/svg">
<g filter="url(#filter0_b_3_2)">
<rect width="300" height="300" fill="#1D6F42"/>
</g>
<path d="M108.761 187.138V168.364H207.405V187.138H169.191V292H146.975V187.138H108.761ZM244.559 293.811C235.262 293.811 227.233 291.879 220.472 288.016C213.751 284.112 208.579 278.598 204.957 271.474C201.335 264.311 199.524 255.879 199.524 246.18C199.524 236.641 201.335 228.27 204.957 221.066C208.619 213.822 213.731 208.187 220.291 204.163C226.851 200.098 234.558 198.065 243.412 198.065C249.127 198.065 254.52 198.991 259.591 200.842C264.702 202.653 269.21 205.471 273.114 209.294C277.058 213.117 280.157 217.987 282.411 223.903C284.664 229.779 285.791 236.782 285.791 244.912V251.613H209.786V236.883H264.843C264.803 232.697 263.897 228.974 262.127 225.714C260.356 222.414 257.881 219.818 254.701 217.927C251.562 216.035 247.9 215.089 243.714 215.089C239.247 215.089 235.323 216.176 231.942 218.349C228.561 220.482 225.925 223.3 224.034 226.801C222.182 230.262 221.236 234.066 221.196 238.211V251.07C221.196 256.463 222.182 261.091 224.154 264.955C226.126 268.778 228.883 271.716 232.425 273.768C235.967 275.781 240.112 276.787 244.861 276.787C248.04 276.787 250.918 276.344 253.494 275.459C256.07 274.533 258.303 273.185 260.195 271.414C262.086 269.643 263.515 267.45 264.481 264.834L284.886 267.128C283.598 272.521 281.143 277.23 277.521 281.254C273.939 285.239 269.351 288.338 263.757 290.551C258.162 292.724 251.763 293.811 244.559 293.811Z" fill="white"/>
<defs>
<filter id="filter0_b_3_2" x="-4" y="-4" width="308" height="308" filterUnits="userSpaceOnUse" color-interpolation-filters="sRGB">
<feFlood flood-opacity="0" result="BackgroundImageFix"/>
<feGaussianBlur in="BackgroundImage" stdDeviation="2"/>
<feComposite in2="SourceAlpha" operator="in" result="effect1_backgroundBlur_3_2"/>
<feBlend mode="normal" in="SourceGraphic" in2="effect1_backgroundBlur_3_2" result="shape"/>
</filter>
</defs>
</svg>
