<svg width="300" height="300" viewBox="0 0 300 300" fill="none" xmlns="http://www.w3.org/2000/svg">
<rect width="300" height="300" fill="#1484CC"/>
<path d="M211.386 202.352C210.822 197.079 208.448 192.974 204.262 190.036C200.117 187.098 194.724 185.629 188.083 185.629C183.415 185.629 179.41 186.334 176.07 187.742C172.729 189.151 170.174 191.062 168.403 193.477C166.632 195.892 165.726 198.649 165.686 201.748C165.686 204.324 166.27 206.557 167.437 208.449C168.644 210.34 170.274 211.95 172.327 213.278C174.379 214.566 176.653 215.653 179.148 216.538C181.644 217.424 184.159 218.168 186.695 218.772L198.286 221.67C202.954 222.756 207.442 224.225 211.748 226.077C216.094 227.928 219.978 230.262 223.399 233.08C226.86 235.897 229.597 239.298 231.609 243.282C233.622 247.266 234.628 251.935 234.628 257.288C234.628 264.532 232.777 270.911 229.074 276.425C225.371 281.898 220.018 286.184 213.016 289.283C206.053 292.342 197.621 293.871 187.721 293.871C178.102 293.871 169.751 292.382 162.668 289.404C155.625 286.426 150.111 282.079 146.126 276.364C142.182 270.649 140.049 263.687 139.727 255.477H161.762C162.084 259.783 163.412 263.365 165.746 266.222C168.081 269.08 171.119 271.213 174.862 272.621C178.645 274.03 182.871 274.734 187.54 274.734C192.41 274.734 196.676 274.01 200.338 272.561C204.041 271.072 206.938 269.019 209.031 266.403C211.124 263.747 212.191 260.648 212.231 257.107C212.191 253.887 211.245 251.231 209.393 249.138C207.542 247.005 204.946 245.234 201.606 243.825C198.306 242.376 194.442 241.089 190.015 239.962L175.949 236.339C165.767 233.723 157.717 229.759 151.801 224.447C145.925 219.094 142.987 211.991 142.987 203.136C142.987 195.852 144.959 189.473 148.903 183.999C152.888 178.526 158.301 174.28 165.143 171.261C171.985 168.203 179.732 166.673 188.385 166.673C197.159 166.673 204.846 168.203 211.446 171.261C218.087 174.28 223.299 178.486 227.082 183.879C230.865 189.231 232.817 195.389 232.938 202.352H211.386ZM291.432 199.273V216.176H238.126V199.273H291.432ZM251.287 177.057H273.14V264.109C273.14 267.047 273.583 269.301 274.469 270.871C275.394 272.4 276.602 273.446 278.091 274.01C279.58 274.573 281.23 274.855 283.041 274.855C284.409 274.855 285.657 274.754 286.784 274.553C287.951 274.352 288.836 274.171 289.44 274.01L293.123 291.094C291.956 291.497 290.285 291.94 288.112 292.423C285.979 292.906 283.363 293.187 280.264 293.268C274.791 293.429 269.86 292.604 265.474 290.793C261.087 288.941 257.605 286.084 255.03 282.22C252.494 278.357 251.247 273.527 251.287 267.732V177.057Z" fill="white"/>
</svg>
