<svg width="300" height="300" viewBox="0 0 300 300" fill="none" xmlns="http://www.w3.org/2000/svg">
<rect width="300" height="300" fill="#1D6F42"/>
<path d="M131.214 292L96.3203 168.364H120.408L142.684 259.219H143.831L167.616 168.364H189.531L213.376 259.28H214.463L236.739 168.364H260.827L225.933 292H203.838L179.087 205.249H178.121L153.309 292H131.214ZM266.891 292V199.273H288.744V292H266.891ZM277.878 186.112C274.417 186.112 271.439 184.965 268.943 182.671C266.448 180.337 265.2 177.54 265.2 174.28C265.2 170.98 266.448 168.183 268.943 165.888C271.439 163.554 274.417 162.387 277.878 162.387C281.379 162.387 284.358 163.554 286.813 165.888C289.308 168.183 290.556 170.98 290.556 174.28C290.556 177.54 289.308 180.337 286.813 182.671C284.358 184.965 281.379 186.112 277.878 186.112Z" fill="white"/>
</svg>
