<svg width="300" height="300" viewBox="0 0 300 300" fill="none" xmlns="http://www.w3.org/2000/svg">
<rect width="300" height="300" fill="#111111"/>
<path d="M67.9091 168.364L95.1357 213.641H96.1016L123.449 168.364H148.985L110.892 230.182L149.589 292H123.63L96.1016 247.025H95.1357L67.6072 292H41.7692L80.8281 230.182L42.2521 168.364H67.9091ZM157.102 292V199.273H177.99V215.029H179.076C181.008 209.717 184.208 205.571 188.675 202.593C193.142 199.575 198.475 198.065 204.673 198.065C210.951 198.065 216.244 199.595 220.55 202.653C224.896 205.672 227.955 209.797 229.726 215.029H230.692C232.745 209.878 236.206 205.772 241.075 202.714C245.986 199.615 251.801 198.065 258.522 198.065C267.054 198.065 274.017 200.762 279.41 206.155C284.803 211.548 287.499 219.416 287.499 229.759V292H265.585V233.14C265.585 227.385 264.056 223.179 260.997 220.523C257.939 217.826 254.196 216.478 249.769 216.478C244.496 216.478 240.371 218.128 237.393 221.428C234.455 224.688 232.986 228.934 232.986 234.166V292H211.555V232.234C211.555 227.445 210.106 223.622 207.208 220.764C204.351 217.907 200.608 216.478 195.98 216.478C192.84 216.478 189.983 217.283 187.407 218.893C184.831 220.462 182.779 222.696 181.249 225.594C179.72 228.451 178.955 231.792 178.955 235.615V292H157.102Z" fill="white"/>
</svg>
