<svg width="300" height="300" viewBox="0 0 300 300" fill="none" xmlns="http://www.w3.org/2000/svg">
<path d="M43.9383 194.083L142.784 292.929C146.69 296.834 153.021 296.834 156.927 292.929L185.161 264.694L79.244 158.777L43.9383 194.083Z" fill="#1170AD"/>
<rect width="149.76" height="84.0605" transform="matrix(0.707107 0.707107 0.707107 -0.707107 89 148.44)" fill="#1484CC"/>
<path d="M158.777 79.244L264.694 185.161L292.929 156.927C296.834 153.021 296.834 146.69 292.929 142.784L194.083 43.9383L158.777 79.244Z" fill="#1484CC"/>
<path d="M156.927 7.07106C153.021 3.16582 146.69 3.16582 142.784 7.07107L43.9383 105.917L79.244 141.223L185.161 35.3057L156.927 7.07106Z" fill="#1170AD"/>
<path d="M35.3058 114L7.07107 142.235C3.16582 146.14 3.16583 152.472 7.07107 156.377L35.3058 184.612L70.6116 149.306L35.3058 114Z" fill="#1170AD"/>
</svg>
