<svg width="237" height="190" viewBox="0 0 237 190" fill="none" xmlns="http://www.w3.org/2000/svg">
<path d="M219.455 72.5229C219.701 68.5587 218.74 68.44 216.02 65.4685C216.489 61.5763 213.72 60.5153 212.236 60.317C210.753 60.1231 209.481 56.2606 210.965 55.5684C212.45 54.8775 217.635 52.1429 209.704 46.1767C207.112 44.1911 204.254 40.4296 204.254 36.7667C204.254 33.1024 202.893 32.3073 200.169 31.4162C197.452 30.5289 183.857 24.9801 176.938 30.7253C170.011 36.4648 160.271 48.4004 158.677 48.9574C152.169 51.2177 141.088 51.2638 134.454 54.5011C127.821 57.734 122.051 70.9131 110.516 72.9871C98.9824 75.0706 89.7513 64.9001 73.0253 71.1449C56.2976 77.3852 38.9916 102.575 38.4156 111.128C37.8419 119.68 35.8206 122.913 30.0561 124.996C24.2829 127.079 21.4027 129.153 19.0937 137.014C16.7887 144.872 12.7548 151.547 16.5011 156.198C20.2482 160.849 21.4019 160.849 25.439 160.849C29.4761 160.849 50.2377 160.849 50.2377 160.849C53.5837 160.849 55.192 157.707 53.4599 155.523C51.7294 153.345 43.4464 151.461 49.0107 146.811C54.5726 142.154 67.6146 134.647 70.6383 130.862C73.6983 127.031 74.3484 127.593 77.0679 131.656C79.7882 135.715 86.7071 145.516 87.8198 157.208C87.9444 159.687 86.9577 160.849 92.1462 160.849C97.3369 160.849 116.865 160.849 116.865 160.849C116.865 160.849 121.933 157.01 118.968 154.236C115.998 151.461 112.045 150.174 112.17 144.826C112.291 139.475 109.696 135.318 114.024 135.216C118.351 135.122 125.27 134.126 127.495 132.641C129.717 131.155 131.449 130.759 132.07 135.715C132.689 140.667 134.542 145.914 131.574 147.497C128.608 149.086 124.162 152.37 126.629 156.614C129.104 160.849 129.598 160.849 133.552 160.849C137.509 160.849 149.993 160.849 149.993 160.849C149.993 160.849 152.218 161.859 154.934 156.017C157.654 150.175 164.203 133.436 162.968 122.54C162.598 118.575 165.935 120.261 166.184 122.046C166.43 123.829 167.297 132.443 167.297 132.443C167.297 132.443 167.545 137.794 170.632 141.258C173.724 144.723 178.048 150.175 174.218 152.252C170.383 154.331 169.77 155.422 169.77 157.202C169.77 158.988 169.029 160.849 173.598 160.849C178.172 160.849 201.161 160.849 201.161 160.849C201.161 160.849 203.758 160.576 206.351 156.614C208.949 152.654 211.173 151.462 209.071 139.483C206.972 127.491 207.217 118.086 199.927 108.376C197.948 105.802 197.702 93.0286 197.702 90.3495C197.702 87.6731 201.285 88.172 203.259 88.4669C205.239 88.7669 208.083 88.5698 213.273 84.1105C218.463 79.6543 225.263 75.3952 219.455 72.5229Z" fill="white"/>
</svg>
