<svg width="300" height="300" viewBox="0 0 300 300" fill="none" xmlns="http://www.w3.org/2000/svg">
<path d="M278.484 114.834C278.796 108.557 277.577 108.369 274.125 103.664C274.721 97.5009 271.206 95.821 269.323 95.507C267.442 95.2 265.828 89.084 267.71 87.988C269.595 86.894 276.175 82.564 266.11 73.117C262.821 69.973 259.194 64.017 259.194 58.217C259.194 52.415 257.467 51.156 254.011 49.745C250.563 48.34 233.311 39.554 224.531 48.651C215.741 57.739 203.381 76.638 201.358 77.52C193.1 81.099 179.038 81.172 170.62 86.298C162.203 91.417 154.881 112.285 140.243 115.569C125.607 118.868 113.893 102.764 92.6675 112.652C71.4405 122.533 49.4795 162.419 48.7485 175.962C48.0205 189.503 45.4555 194.622 38.1405 197.92C30.8145 201.219 27.1595 204.503 24.2295 216.951C21.3045 229.393 16.1855 239.962 20.9395 247.326C25.6945 254.691 27.1585 254.691 32.2815 254.691C37.4045 254.691 63.7505 254.691 63.7505 254.691C67.9965 254.691 70.0375 249.716 67.8395 246.257C65.6435 242.809 55.1325 239.826 62.1935 232.463C69.2515 225.089 85.8015 213.203 89.6385 207.209C93.5215 201.143 94.3465 202.033 97.7975 208.466C101.25 214.894 110.03 230.413 111.442 248.925C111.6 252.851 110.348 254.691 116.932 254.691C123.519 254.691 148.3 254.691 148.3 254.691C148.3 254.691 154.731 248.613 150.968 244.22C147.2 239.826 142.183 237.788 142.342 229.32C142.495 220.847 139.202 214.264 144.695 214.104C150.186 213.955 158.966 212.378 161.789 210.026C164.608 207.673 166.806 207.046 167.594 214.894C168.38 222.734 170.732 231.043 166.965 233.55C163.201 236.065 157.559 241.265 160.69 247.985C163.831 254.691 164.458 254.691 169.475 254.691C174.497 254.691 190.339 254.691 190.339 254.691C190.339 254.691 193.162 256.291 196.609 247.04C200.06 237.789 208.37 211.285 206.804 194.032C206.334 187.754 210.568 190.424 210.885 193.25C211.197 196.073 212.297 209.712 212.297 209.712C212.297 209.712 212.612 218.185 216.529 223.671C220.452 229.157 225.939 237.789 221.08 241.078C216.213 244.37 215.435 246.098 215.435 248.917C215.435 251.744 214.495 254.691 220.293 254.691C226.097 254.691 255.269 254.691 255.269 254.691C255.269 254.691 258.565 254.259 261.855 247.985C265.152 241.715 267.975 239.827 265.307 220.86C262.643 201.872 262.955 186.98 253.704 171.604C251.192 167.528 250.88 147.303 250.88 143.061C250.88 138.823 255.427 139.613 257.932 140.08C260.444 140.555 264.054 140.243 270.64 133.182C277.226 126.126 285.854 119.382 278.484 114.834Z" fill="black"/>
</svg>
